<svg xmlns="http://www.w3.org/2000/svg" xmlns:xlink="http://www.w3.org/1999/xlink" width="500" zoomAndPan="magnify" viewBox="0 0 375 374.999991" height="500" preserveAspectRatio="xMidYMid meet" version="1.0"><defs><g/><clipPath id="6d7fe1566a"><path d="M 63.761719 62 L 310 62 L 310 228 L 63.761719 228 Z M 63.761719 62 " clip-rule="nonzero"/></clipPath></defs><g fill="#405a9d" fill-opacity="1"><g transform="translate(57.554428, 271.299435)"><g><path d="M 36.15625 -34.953125 C 35.65625 -34.953125 35.25 -34.59375 35.15625 -34.15625 C 34.84375 -32.09375 34.046875 -26.40625 32.453125 -17.453125 C 32.15625 -15.5 31.796875 -13.75 31.5 -12.09375 C 31.40625 -11.65625 30.75 -11.65625 30.703125 -12.09375 C 30.40625 -13.75 30.09375 -15.5 29.796875 -17.453125 C 28.40625 -26.34375 27.65625 -32.046875 27.40625 -34.09375 C 27.296875 -34.59375 26.90625 -35 26.40625 -35 L 18.75 -35 C 18.25 -35 17.84375 -34.59375 17.75 -34.09375 C 17.5 -32.046875 16.75 -26.34375 15.34375 -17.453125 C 15.046875 -15.5 14.75 -13.75 14.453125 -12.09375 C 14.40625 -11.65625 13.75 -11.65625 13.65625 -12.09375 C 13.34375 -13.75 13 -15.5 12.703125 -17.453125 C 11.09375 -26.40625 10.25 -32.09375 10 -34.15625 C 9.90625 -34.59375 9.5 -34.953125 9 -34.953125 L 3.203125 -34.953125 C 2.59375 -34.953125 2.09375 -34.40625 2.25 -33.796875 C 2.75 -31.5 3.84375 -25.953125 5.34375 -17.453125 C 6.953125 -8.546875 7.75 -2.84375 8.046875 -0.796875 C 8.09375 -0.34375 8.546875 0.046875 9.046875 0.046875 L 17.453125 0.046875 C 17.953125 0.046875 18.34375 -0.34375 18.453125 -0.84375 C 18.703125 -2.90625 19.453125 -8.546875 20.84375 -17.453125 C 21.34375 -20.453125 21.796875 -23.046875 22.15625 -25.25 C 22.25 -25.75 22.90625 -25.75 23 -25.25 C 23.34375 -23.046875 23.796875 -20.453125 24.296875 -17.453125 C 25.703125 -8.546875 26.453125 -2.90625 26.703125 -0.84375 C 26.75 -0.34375 27.203125 0.046875 27.703125 0.046875 L 36.09375 0.046875 C 36.59375 0.046875 37.046875 -0.34375 37.09375 -0.796875 C 37.40625 -2.84375 38.203125 -8.546875 39.796875 -17.453125 C 41.296875 -25.953125 42.40625 -31.5 42.90625 -33.796875 C 43.046875 -34.40625 42.546875 -34.953125 41.953125 -34.953125 Z M 36.15625 -34.953125 "/></g></g></g><g fill="#405a9d" fill-opacity="1"><g transform="translate(105.246793, 271.299435)"><g><path d="M 23.90625 0 L 29.75 0 C 30.40625 0 30.84375 -0.546875 30.703125 -1.203125 C 30.15625 -3.5 28.796875 -9.046875 27.046875 -17.5 C 25.15625 -26.453125 24.09375 -32.15625 23.75 -34.15625 C 23.65625 -34.65625 23.25 -34.953125 22.796875 -34.953125 L 10.203125 -34.953125 C 9.703125 -34.953125 9.296875 -34.65625 9.203125 -34.15625 C 8.84375 -32.15625 7.84375 -26.453125 5.953125 -17.5 C 4.15625 -9.046875 2.796875 -3.5 2.25 -1.203125 C 2.09375 -0.546875 2.546875 0 3.203125 0 L 9.046875 0 C 9.546875 0 9.953125 -0.296875 10.046875 -0.796875 C 10.203125 -1.703125 10.5 -3.453125 11 -5.953125 C 11.09375 -6.453125 11.5 -6.75 11.953125 -6.75 L 21 -6.75 C 21.5 -6.75 21.90625 -6.453125 21.953125 -5.953125 C 22.453125 -3.453125 22.75 -1.703125 22.953125 -0.796875 C 23 -0.296875 23.40625 0 23.90625 0 Z M 13.40625 -12.046875 C 12.796875 -12.046875 12.296875 -12.65625 12.453125 -13.25 C 12.703125 -14.546875 13 -16 13.34375 -17.5 C 14.34375 -22.203125 15.203125 -26.046875 15.84375 -28.90625 C 16 -29.546875 16.953125 -29.546875 17.15625 -28.90625 C 17.796875 -26.046875 18.65625 -22.203125 19.65625 -17.5 C 19.953125 -16 20.25 -14.546875 20.546875 -13.25 C 20.65625 -12.65625 20.203125 -12.046875 19.546875 -12.046875 Z M 13.40625 -12.046875 "/></g></g></g><g fill="#405a9d" fill-opacity="1"><g transform="translate(140.791167, 271.299435)"><g><path d="M 18.796875 -17.453125 C 17.90625 -13.09375 17.09375 -9.546875 16.453125 -6.796875 C 16.40625 -6.40625 15.75 -6.40625 15.65625 -6.796875 C 15.046875 -9.546875 14.25 -13.09375 13.34375 -17.453125 C 11.453125 -26.453125 10.40625 -32.15625 10.046875 -34.15625 C 9.953125 -34.65625 9.546875 -35 9.046875 -35 L 3.203125 -35 C 2.546875 -35 2.09375 -34.40625 2.25 -33.75 C 2.796875 -31.453125 4.15625 -25.90625 5.953125 -17.453125 C 7.84375 -8.5 8.84375 -2.796875 9.203125 -0.796875 C 9.296875 -0.296875 9.703125 0 10.203125 0 L 21.953125 0 C 22.453125 0 22.84375 -0.296875 22.953125 -0.796875 C 23.296875 -2.796875 24.296875 -8.5 26.203125 -17.453125 C 28 -25.90625 29.296875 -31.453125 29.90625 -33.75 C 30.046875 -34.40625 29.546875 -35 28.953125 -35 L 23.09375 -35 C 22.59375 -35 22.203125 -34.65625 22.09375 -34.15625 C 21.75 -32.15625 20.703125 -26.453125 18.796875 -17.453125 Z M 18.796875 -17.453125 "/></g></g></g><g fill="#405a9d" fill-opacity="1"><g transform="translate(175.485687, 271.299435)"><g><path d="M 25.203125 -30.65625 L 25.203125 -34 C 25.203125 -34.546875 24.75 -34.953125 24.203125 -34.953125 L 3.453125 -34.953125 C 2.90625 -34.953125 2.453125 -34.5 2.5 -33.953125 C 2.546875 -31.796875 2.703125 -26.203125 2.703125 -17.5 C 2.703125 -8.796875 2.546875 -3.15625 2.5 -1 C 2.453125 -0.453125 2.90625 0.046875 3.453125 0.046875 L 24.203125 0.046875 C 24.75 0.046875 25.203125 -0.40625 25.203125 -0.953125 L 25.203125 -4.296875 C 25.203125 -4.84375 24.75 -5.25 24.203125 -5.25 L 11.09375 -5.25 C 10.59375 -5.25 10.15625 -5.703125 10.15625 -6.25 C 10.09375 -8.296875 10.046875 -10.796875 10.046875 -13.84375 C 10.046875 -14.40625 10.5 -14.84375 11.046875 -14.84375 L 21.546875 -14.84375 C 22.09375 -14.84375 22.546875 -15.25 22.546875 -15.796875 L 22.546875 -19.15625 C 22.546875 -19.703125 22.09375 -20.09375 21.546875 -20.09375 L 11.046875 -20.09375 C 10.5 -20.09375 10.046875 -20.546875 10.046875 -21.09375 C 10.046875 -24.15625 10.09375 -26.65625 10.15625 -28.703125 C 10.15625 -29.25 10.59375 -29.703125 11.09375 -29.703125 L 24.203125 -29.703125 C 24.75 -29.703125 25.203125 -30.09375 25.203125 -30.65625 Z M 25.203125 -30.65625 "/></g></g></g><g fill="#405a9d" fill-opacity="1"><g transform="translate(205.730937, 271.299435)"><g/></g></g><g fill="#405a9d" fill-opacity="1"><g transform="translate(223.128316, 271.299435)"><g><path d="M 26.796875 -24 C 26.796875 -24 26.796875 -24.046875 26.796875 -24.046875 C 26.796875 -24.15625 26.796875 -24.25 26.796875 -24.34375 C 26.703125 -29.703125 23.59375 -34.953125 14.65625 -34.953125 L 3.453125 -34.953125 C 2.90625 -34.953125 2.453125 -34.5 2.5 -33.953125 C 2.546875 -31.796875 2.703125 -26.203125 2.703125 -17.5 C 2.703125 -8.796875 2.546875 -3.15625 2.5 -1 C 2.453125 -0.453125 2.90625 0.046875 3.453125 0.046875 L 14.65625 0.046875 C 23.65625 0.046875 26.796875 -4.046875 26.796875 -10.453125 C 26.796875 -12.546875 26.59375 -14 26.59375 -17.40625 C 26.59375 -20.59375 26.796875 -22.046875 26.796875 -24 Z M 14.546875 -5.25 L 11.09375 -5.25 C 10.59375 -5.25 10.15625 -5.703125 10.15625 -6.25 C 10.09375 -9.046875 10.046875 -12.84375 10.046875 -17.5 C 10.046875 -22.15625 10.09375 -25.90625 10.15625 -28.703125 C 10.15625 -29.25 10.59375 -29.703125 11.09375 -29.703125 L 14.75 -29.703125 C 18.90625 -29.703125 18.953125 -25.203125 18.953125 -24 L 18.953125 -10.453125 C 18.953125 -7.90625 18.5 -5.25 14.546875 -5.25 Z M 14.546875 -5.25 "/></g></g></g><g fill="#405a9d" fill-opacity="1"><g transform="translate(254.973295, 271.299435)"><g><path d="M 25.203125 -30.65625 L 25.203125 -34 C 25.203125 -34.546875 24.75 -34.953125 24.203125 -34.953125 L 3.453125 -34.953125 C 2.90625 -34.953125 2.453125 -34.5 2.5 -33.953125 C 2.546875 -31.796875 2.703125 -26.203125 2.703125 -17.5 C 2.703125 -8.796875 2.546875 -3.15625 2.5 -1 C 2.453125 -0.453125 2.90625 0.046875 3.453125 0.046875 L 24.203125 0.046875 C 24.75 0.046875 25.203125 -0.40625 25.203125 -0.953125 L 25.203125 -4.296875 C 25.203125 -4.84375 24.75 -5.25 24.203125 -5.25 L 11.09375 -5.25 C 10.59375 -5.25 10.15625 -5.703125 10.15625 -6.25 C 10.09375 -8.296875 10.046875 -10.796875 10.046875 -13.84375 C 10.046875 -14.40625 10.5 -14.84375 11.046875 -14.84375 L 21.546875 -14.84375 C 22.09375 -14.84375 22.546875 -15.25 22.546875 -15.796875 L 22.546875 -19.15625 C 22.546875 -19.703125 22.09375 -20.09375 21.546875 -20.09375 L 11.046875 -20.09375 C 10.5 -20.09375 10.046875 -20.546875 10.046875 -21.09375 C 10.046875 -24.15625 10.09375 -26.65625 10.15625 -28.703125 C 10.15625 -29.25 10.59375 -29.703125 11.09375 -29.703125 L 24.203125 -29.703125 C 24.75 -29.703125 25.203125 -30.09375 25.203125 -30.65625 Z M 25.203125 -30.65625 "/></g></g></g><g fill="#405a9d" fill-opacity="1"><g transform="translate(285.218553, 271.299435)"><g><path d="M 18.796875 -17.453125 C 17.90625 -13.09375 17.09375 -9.546875 16.453125 -6.796875 C 16.40625 -6.40625 15.75 -6.40625 15.65625 -6.796875 C 15.046875 -9.546875 14.25 -13.09375 13.34375 -17.453125 C 11.453125 -26.453125 10.40625 -32.15625 10.046875 -34.15625 C 9.953125 -34.65625 9.546875 -35 9.046875 -35 L 3.203125 -35 C 2.546875 -35 2.09375 -34.40625 2.25 -33.75 C 2.796875 -31.453125 4.15625 -25.90625 5.953125 -17.453125 C 7.84375 -8.5 8.84375 -2.796875 9.203125 -0.796875 C 9.296875 -0.296875 9.703125 0 10.203125 0 L 21.953125 0 C 22.453125 0 22.84375 -0.296875 22.953125 -0.796875 C 23.296875 -2.796875 24.296875 -8.5 26.203125 -17.453125 C 28 -25.90625 29.296875 -31.453125 29.90625 -33.75 C 30.046875 -34.40625 29.546875 -35 28.953125 -35 L 23.09375 -35 C 22.59375 -35 22.203125 -34.65625 22.09375 -34.15625 C 21.75 -32.15625 20.703125 -26.453125 18.796875 -17.453125 Z M 18.796875 -17.453125 "/></g></g></g><g clip-path="url(#6d7fe1566a)"><path fill="#405a9d" d="M 63.761719 139.636719 C 65.820312 141.113281 68.332031 139.589844 70.46875 140.078125 C 72.40625 140.519531 74.035156 142.730469 75.992188 143.148438 C 81.613281 144.355469 87.203125 142.84375 92.683594 140.527344 C 101.886719 136.636719 112.515625 126.089844 119.46875 114.179688 C 122.746094 108.566406 128.8125 104.738281 133.203125 103.210938 C 136.957031 97.722656 141.652344 94.78125 146.011719 91.417969 C 155.671875 83.953125 165.664062 77.148438 175.773438 71.710938 C 184.789062 66.863281 193.238281 64.925781 202.539062 64.996094 C 207.296875 65.03125 211.972656 61.988281 217.109375 62.402344 C 222.816406 62.867188 229.742188 62.636719 235.066406 66.410156 C 239.015625 69.207031 243.296875 69.898438 247.355469 71.960938 C 250.476562 73.550781 254.675781 75.019531 257.277344 77.800781 C 260.664062 81.425781 264.726562 82.054688 268.128906 85.628906 C 274.726562 92.550781 265.957031 91.390625 265.78125 93.117188 C 267.261719 97.460938 270.980469 96.722656 272.71875 100.582031 C 276.003906 107.863281 267.339844 102.976562 267.753906 102.773438 C 265.957031 103.085938 266.882812 106.796875 267.414062 108.257812 C 268.851562 112.230469 272.84375 109.65625 274.855469 108.660156 C 279.886719 106.171875 283.933594 111.390625 288.929688 112.101562 C 291.054688 112.402344 293.289062 112.199219 295.382812 113.105469 C 299.375 114.84375 295.804688 118.628906 297.738281 122.523438 C 299.671875 123.960938 302.710938 124.390625 304.019531 127.824219 C 305.238281 131.023438 306.492188 130.289062 308.089844 133.410156 C 310.199219 137.53125 310.039062 144.488281 306.386719 144.769531 C 302.152344 145.097656 305.898438 140.144531 303.265625 137.882812 C 301.078125 137.441406 298.203125 137.96875 297.4375 142.582031 C 295.984375 151.34375 304.234375 147.0625 305.234375 155 C 306.777344 167.203125 297.171875 152.941406 296.949219 161.144531 C 300.558594 163.421875 299.40625 170.125 296.265625 171.71875 C 294.59375 172.5625 292.929688 171.503906 291.820312 169.042969 C 290.324219 171.242188 288.234375 171.992188 286.382812 172.039062 C 284.308594 172.089844 283.359375 172.273438 283.046875 168.804688 C 282.835938 166.449219 278.796875 167.855469 277.648438 166.96875 C 273.367188 163.671875 280.457031 161.664062 280.378906 159.386719 C 278.527344 158.992188 272.300781 159.277344 275.25 152.804688 C 273.234375 153.199219 271.367188 155.445312 269.328125 153.683594 C 269.628906 158.125 267.417969 159.910156 265.46875 160.625 C 261.761719 161.988281 262.691406 154.777344 260 156.214844 C 257.492188 157.554688 254.875 159.75 252.398438 156.480469 C 248.007812 150.6875 254.960938 153.207031 254.335938 149.296875 C 252.660156 149.546875 251.042969 149.191406 249.699219 147.214844 C 247.902344 144.574219 250.320312 143.144531 249.601562 142.273438 C 246.664062 142.792969 244.039062 145.519531 241.132812 146.269531 C 237.429688 147.222656 236.289062 145.148438 232.839844 149.183594 C 230.378906 152.066406 228.734375 155.511719 229.054688 161.203125 C 229.453125 168.214844 225.75 171.285156 226.035156 178.203125 C 226.855469 198.460938 241.207031 221.9375 250.785156 227.414062 L 102.035156 227.414062 C 103.386719 226.457031 102.105469 222.902344 103.613281 222.152344 C 103.078125 221.144531 102.421875 220.847656 101.636719 221.269531 C 104.085938 219.246094 106.710938 229.199219 106.769531 220.394531 C 108.632812 219.078125 109.949219 219.960938 110.714844 223.027344 C 114.144531 217.515625 101.492188 218.542969 100.652344 218.710938 C 98.144531 219.222656 95.285156 218.828125 92.957031 216.882812 C 92.761719 210.253906 98.992188 209.511719 98.089844 214.25 C 102.917969 211.066406 91.976562 204.167969 92.957031 210.738281 C 92.367188 197.804688 82.015625 208.308594 79.148438 208.980469 C 76.304688 209.644531 73.9375 208.25 71.257812 206.785156 C 71.683594 199.558594 68.183594 204.082031 68.101562 202.839844 C 68.753906 200.730469 71.179688 202.601562 71.652344 200.207031 C 70.859375 198.195312 68.476562 196.703125 67.3125 198.449219 C 67.332031 198.585938 72.367188 194.535156 71.652344 202.402344 C 75.21875 205.632812 73.09375 195.808594 73.230469 194.9375 C 77.394531 192.640625 78.097656 195.808594 78.753906 201.082031 C 81.585938 202.046875 80.542969 196.910156 81.121094 194.058594 C 84.714844 193.484375 83.222656 196.753906 84.964844 190.871094 C 85.96875 187.476562 91.429688 190.722656 89.800781 194.9375 C 93.640625 191.308594 86.339844 189.5625 86.644531 185.722656 C 87.085938 186.234375 87.347656 186.964844 87.433594 187.917969 C 88.921875 187.898438 87.566406 184.8125 89.40625 185.285156 C 87.121094 191.089844 96.375 193.933594 94.140625 199.765625 C 96.109375 199.414062 95.886719 196.085938 94.929688 194.0625 C 95.882812 192.171875 100.183594 191.660156 100.847656 194.5 C 101.269531 196.144531 99.367188 195.191406 99.664062 196.695312 C 101.3125 200.375 101.75 193.207031 102.824219 192.746094 C 102.328125 191.597656 101.671875 191.160156 100.847656 191.429688 C 101.683594 190.777344 102.472656 190.921875 103.214844 191.867188 C 102.722656 193.34375 102.460938 194.957031 102.425781 196.695312 C 104.089844 196.664062 105.074219 194.363281 106.222656 197.441406 C 107.480469 200.816406 107.632812 204.128906 104.796875 204.15625 C 105.015625 209.238281 108.625 202.777344 109.136719 202.402344 C 107.394531 198.167969 106.960938 192 110.320312 191.429688 C 110.378906 192.542969 110.25 193.566406 109.925781 194.503906 C 112.058594 195.660156 112.570312 189.222656 115.371094 190.195312 C 118.488281 191.277344 116.460938 194.222656 117.816406 195.820312 C 119.574219 195.601562 120.132812 192.527344 118.960938 190.425781 C 117.164062 187.199219 114.148438 186.613281 111.796875 186.300781 C 108.371094 185.839844 108.148438 187.144531 107.164062 180.894531 C 106.554688 180.152344 102.445312 179.183594 103.609375 176.507812 C 105.425781 175.738281 106.480469 177.128906 107.949219 178.703125 C 109.480469 176.464844 106.269531 175.714844 107.554688 173.4375 C 105.21875 174.796875 102.78125 172.769531 100.453125 173.875 C 103.035156 172.523438 108.441406 169.105469 107.949219 165.097656 C 108.84375 165.699219 109.761719 165.992188 110.714844 165.972656 C 110.21875 166.449219 109.695312 166.59375 109.136719 166.414062 C 108.433594 170.527344 111.574219 170.109375 112.683594 169.925781 C 110.613281 170.976562 114.410156 174.1875 116.238281 172.558594 C 117.617188 178.414062 114.582031 175.316406 113.082031 176.507812 C 115.945312 183.792969 120.8125 170.164062 124.128906 175.628906 C 124.550781 178.226562 122.214844 177.152344 121.761719 176.945312 C 122.199219 179.683594 126.398438 178.101562 126.101562 175.628906 C 128.511719 180.644531 125.695312 184.03125 122.945312 183.089844 C 122.988281 185.738281 126.320312 184.96875 127.085938 185.003906 C 131.253906 185.191406 128.960938 191.820312 126.101562 190.550781 C 125.496094 194.886719 133.273438 186.566406 133.203125 186.601562 C 131.367188 192.351562 125.519531 201.59375 121.761719 197.570312 C 122.199219 200.945312 126.195312 199.8125 127.285156 198.890625 C 125.777344 203.042969 130.019531 203.996094 125.699219 205.796875 C 124.523438 206.289062 121.558594 206.871094 121.4375 205.875 C 121.941406 210.050781 128.75 208.621094 130.441406 208.546875 C 132.898438 213.460938 126.882812 215.410156 125.3125 213.8125 C 123.507812 216.496094 129.773438 216.121094 129.417969 216.257812 C 131.566406 215.425781 133.15625 212.617188 134.386719 209.421875 C 133.269531 208.769531 132.480469 207.453125 132.019531 205.472656 C 133.03125 204.453125 134.082031 204.304688 135.175781 205.035156 C 135.65625 207.019531 134.085938 206.707031 134.386719 208.546875 C 137.128906 208.558594 138.339844 201.964844 134.78125 201.960938 C 137.101562 200.113281 146.402344 199.613281 142.675781 207.664062 C 144.414062 208.292969 148.046875 201.828125 145.4375 200.644531 C 145.914062 199.992188 155.484375 194.851562 152.539062 192.304688 C 154.78125 190.855469 154.113281 196.386719 152.539062 196.695312 C 155.996094 201.515625 152.761719 199.121094 152.933594 203.277344 C 155.007812 204.003906 156.132812 200.355469 157.273438 198.011719 C 156.109375 202.375 157.867188 205.867188 154.511719 207.664062 C 156.914062 209.4375 158.558594 203.496094 160.554688 208.40625 C 161.816406 211.503906 159.433594 214.875 157.667969 215.125 C 161.167969 219.085938 162.671875 209.828125 165.953125 209.859375 C 167.855469 209.878906 169.066406 211.765625 169.945312 214.699219 C 171.632812 220.316406 169.398438 215.722656 169.109375 219.957031 C 172.15625 222.484375 172.640625 214.671875 171.085938 211.609375 C 170.226562 210.285156 169.566406 208.675781 169.109375 206.789062 C 168.296875 207.132812 167.480469 207.351562 166.652344 207.449219 C 167.324219 208.0625 169.660156 203.910156 169.503906 202.402344 C 171.558594 202.246094 177.261719 203.867188 175.027344 210.296875 C 177.425781 209.660156 177.628906 204.089844 175.769531 202.25 C 170.550781 197.082031 178.109375 197.46875 176.210938 201.523438 C 179.347656 201.769531 176.019531 196.628906 178.8125 195.632812 C 180.042969 195.246094 181.261719 195.359375 182.46875 195.964844 C 184.796875 197.230469 182.589844 200.5 184.101562 201.523438 C 186.523438 199.019531 184.167969 195.570312 182.835938 194.21875 C 179.902344 191.234375 176.363281 194.277344 173.449219 196.253906 C 176.136719 195.578125 177.273438 190.035156 173.449219 190.113281 C 177.273438 189.234375 175.664062 184.40625 173.054688 183.085938 C 170.042969 182.765625 168.730469 187.265625 165.609375 186.453125 C 163.601562 185.929688 158.128906 184.367188 157.441406 180.9375 C 156.855469 178.011719 157.351562 175.09375 157.269531 172.117188 C 158.015625 172.546875 160.585938 170.195312 160.503906 171.210938 C 160.300781 171.949219 160.011719 172.546875 159.640625 172.996094 C 159.589844 173.007812 162.847656 173.601562 162.449219 172.636719 C 161.820312 172.320312 161.671875 171.855469 162.007812 171.238281 C 163.679688 170.484375 162.484375 172.296875 163.585938 172.558594 C 163.820312 174.324219 161.933594 173.761719 161.613281 174.75 C 162.214844 177.238281 164.949219 176.003906 164.769531 173.433594 C 165.714844 176.105469 168.753906 179.578125 164.375 179.578125 C 166.378906 181.878906 167.425781 180.21875 168.832031 177.546875 C 170.78125 173.835938 175.664062 176 173.054688 179.136719 C 180.800781 179.070312 171.210938 168.511719 178.972656 168.605469 C 178.359375 170.511719 174.910156 169.347656 175.816406 172.992188 C 178.628906 171.238281 180.964844 173.574219 183.707031 174.308594 C 184.199219 178.246094 181.253906 180.832031 181.339844 181.332031 C 184.390625 183.179688 187.933594 173.789062 190.414062 178.699219 C 189.683594 177.921875 188.898438 177.628906 188.046875 177.820312 C 188.550781 178.933594 189.210938 179.371094 190.019531 179.140625 C 191.003906 183.082031 189.367188 184.746094 188.046875 187.039062 C 190.707031 188.546875 191.980469 184.660156 194.359375 183.96875 C 198.425781 184.765625 195.0625 189.886719 194.753906 191.425781 C 199.164062 193.265625 197.535156 184.121094 201.691406 184.734375 C 206.757812 185.484375 203.679688 187.578125 205.015625 191.425781 C 211.734375 191.882812 203.566406 181.050781 200.671875 180.453125 C 200.242188 178.441406 202.019531 179.136719 201.859375 177.382812 C 201.210938 177.097656 198.742188 178.839844 198.304688 178.261719 C 198.878906 172.945312 203.332031 179.132812 203.832031 180.890625 C 206.25 181.617188 205.429688 176.730469 203.4375 176.070312 C 203.523438 174 217.441406 171.097656 213.300781 180.015625 C 218.910156 178.710938 213.765625 171.34375 211.328125 169.925781 C 213.859375 172.023438 217.238281 161.710938 219.613281 170.800781 C 222.183594 166.53125 212.601562 164.203125 211.09375 165.492188 C 208.640625 167.582031 206.265625 163.339844 203.4375 164.21875 C 202.390625 165.273438 201.339844 166.300781 200.28125 167.289062 C 198.96875 166.808594 197.652344 166.371094 196.332031 165.972656 C 198.71875 165.71875 198.835938 160.464844 196.332031 160.265625 C 198.675781 157.910156 203.640625 156.097656 205.410156 161.148438 C 206.070312 153.546875 196.160156 156.800781 194.359375 157.636719 C 194.121094 152.652344 196.597656 155.851562 197.910156 155.878906 C 197.324219 149.722656 186.757812 158.945312 184.011719 158.03125 C 183.035156 157.707031 180.199219 156.789062 180.0625 154.203125 C 179.980469 152.578125 181.457031 151.726562 181.984375 151.410156 C 185.121094 149.539062 183.246094 152.0625 184.890625 154.558594 C 188.964844 153.210938 185.359375 146.929688 182.917969 147.101562 C 182.140625 140.324219 187.269531 144.457031 188.835938 145.34375 C 188.617188 146.023438 188.484375 146.753906 188.441406 147.542969 C 193.03125 145.746094 185.820312 141.359375 184.230469 141.472656 C 183.273438 141.539062 175.648438 145.15625 176.605469 140.519531 L 179.761719 140.519531 C 178.382812 136.980469 172.570312 137.488281 171.082031 140.519531 C 167.222656 141.226562 163.339844 139.089844 160.726562 134.042969 C 159.328125 131.347656 154.890625 123.796875 157.125 119.726562 C 159.183594 115.964844 166.25 117.105469 162.007812 123.402344 C 165.664062 125.667969 167.25 118.027344 164.375 114.1875 C 165.269531 114.703125 165.925781 115.726562 166.347656 117.257812 C 167.433594 115.742188 168.648438 115.242188 169.992188 115.757812 C 174.769531 117.085938 171.757812 119.445312 171.871094 123.402344 C 174.191406 125.199219 175.691406 121.125 174.609375 117.726562 C 172.691406 111.707031 176.714844 114.132812 178.183594 112.871094 C 177.367188 110.492188 175.101562 111.769531 174.027344 112.257812 C 172.25 113.066406 170.050781 109.761719 167.925781 108.921875 C 169.550781 108.078125 178.699219 110.902344 178.972656 114.1875 C 182.839844 110.378906 171.507812 108.5 171.476562 108.480469 C 172.394531 108.109375 173.3125 108.109375 174.238281 108.480469 C 173.976562 107.058594 173.847656 105.597656 173.84375 104.09375 C 175.324219 104.488281 174.121094 105.710938 174.238281 107.167969 C 176.269531 106.359375 185.613281 114.472656 184.496094 119.894531 C 188.558594 120.566406 182.960938 110.292969 182.523438 108.921875 C 186.082031 105.417969 187.636719 110.074219 189.234375 112.871094 C 192.835938 107.21875 179.941406 105.015625 179.367188 103.65625 C 187.597656 108.136719 177.96875 102.710938 183.371094 100.640625 C 185.246094 99.921875 194.515625 99.011719 191.996094 107.167969 C 196.988281 107.171875 191.8125 100.285156 191.597656 97.949219 C 192.109375 99.839844 194.691406 104.046875 195.460938 103.117188 C 197.859375 100.222656 201.121094 108.675781 198.308594 111.996094 C 200.804688 112.902344 202.476562 107.644531 203.289062 105.753906 C 202.71875 106.175781 202.503906 106.9375 202.648438 108.046875 C 204.070312 107.363281 211.601562 109.703125 208.566406 115.066406 C 210.164062 116.230469 210.785156 113.363281 210.933594 111.117188 C 209.394531 107.027344 206.640625 105.394531 205.015625 101.460938 C 205.328125 100.304688 205.851562 99.867188 206.59375 100.144531 C 206.894531 96.488281 202.605469 98.539062 203.175781 97.59375 C 203.839844 96.476562 205.933594 97.085938 206.59375 97.949219 C 206.898438 93.753906 201.921875 94.363281 200.675781 93.5625 C 201.917969 93.292969 208.890625 94.332031 206.59375 99.265625 C 209.890625 99.398438 207.84375 92.421875 205.804688 91.808594 C 208.917969 90.648438 208.652344 96.023438 208.566406 98.390625 C 209.726562 99.035156 210.910156 99.476562 212.117188 99.707031 C 212.378906 101.171875 212.644531 102.632812 212.90625 104.09375 C 215.382812 102.972656 214.035156 99.238281 213.300781 96.636719 C 215.730469 93.921875 220.089844 94.929688 219.613281 100.148438 C 221.257812 100.710938 220.546875 98.152344 221.980469 98.390625 C 221.019531 100.386719 223.890625 100.882812 223.558594 103.21875 C 222.890625 103.410156 222.230469 103.703125 221.585938 104.097656 C 222.527344 105.339844 230.910156 95.738281 230.269531 105.414062 C 228.140625 99.496094 223.785156 103.871094 225.125 105.210938 C 228.355469 108.449219 221.8125 108.863281 221.191406 108.925781 C 220.058594 110.03125 225.148438 111.800781 226.316406 110.960938 C 227.863281 109.851562 229.457031 110.15625 230.660156 112.4375 C 232.363281 115.667969 230.445312 115.148438 229.476562 117.261719 C 231.882812 119.648438 232.449219 114.222656 234.214844 112.871094 C 233.855469 119.675781 227.75 120.410156 225.136719 120.335938 C 226.730469 125.84375 239.777344 115.066406 235.398438 124.722656 C 236.101562 126.730469 237.933594 124.15625 238.949219 125.164062 C 241.429688 129.414062 238.203125 129.027344 237.371094 131.308594 C 240.347656 133.167969 242.355469 126.292969 245.261719 131.308594 C 244.15625 131.332031 243.105469 130.890625 242.105469 129.992188 C 245.367188 135.691406 235.351562 137.179688 235.398438 137.890625 C 237.359375 139.859375 244.433594 136.488281 243.289062 142.277344 C 242.496094 142.035156 241.710938 142.035156 240.921875 142.277344 C 240.261719 147.628906 248.710938 141.257812 246.050781 137.011719 C 246.082031 136.917969 251.371094 139.324219 252.476562 139.738281 C 258.394531 141.957031 252.179688 144.507812 251.574219 146.226562 C 252.917969 148.78125 255.878906 146.773438 256.703125 144.035156 C 255.804688 146.214844 260.738281 155.226562 254.730469 154.128906 C 256.714844 156.574219 259.113281 153.941406 261.050781 152.8125 C 264.730469 150.660156 264.660156 153.753906 264.597656 158.078125 C 270.339844 157.742188 264.503906 150.21875 265.699219 147.054688 C 268.371094 140.003906 275.332031 150.292969 272.09375 151.492188 C 274.269531 154.472656 275.808594 145.25 275.929688 145.5625 C 276.054688 146.457031 275.960938 147.265625 275.644531 147.984375 C 277.851562 148.320312 280.910156 154.011719 277.222656 155.882812 C 279.28125 158.1875 281.191406 152.519531 283.535156 153.25 C 283.035156 153.871094 280.796875 153.324219 280.773438 155.007812 C 282.015625 157.273438 283.183594 153.675781 283.53125 158.195312 C 283.878906 162.730469 281.683594 164.5 279.589844 164.222656 C 279.847656 165.96875 291.671875 162.480469 286.296875 169.929688 C 287.292969 170.027344 291.894531 166.734375 289.453125 165.101562 C 289.746094 165.316406 298.003906 166.261719 295.371094 169.046875 C 299.765625 163.664062 285.574219 158.886719 290.015625 156.484375 C 292.214844 155.296875 295.796875 159.140625 296.148438 156.96875 C 296.9375 152.085938 302.875 153.132812 302.472656 158.078125 C 305.738281 153.675781 293.824219 148.597656 291.820312 149.738281 C 293.972656 149.085938 295.257812 146.6875 295.03125 142.585938 C 294.648438 135.601562 292.65625 140.859375 291.007812 137.070312 C 290.5625 136.042969 295.6875 137.792969 295.222656 138.671875 C 294.742188 138.960938 294.53125 139.578125 294.582031 140.523438 C 295.339844 140.429688 299.480469 136.425781 296.949219 134.816406 C 299.777344 137.609375 306.523438 130.136719 307.207031 139.644531 C 311.222656 131.496094 296.644531 133.875 297.34375 128.675781 C 298.832031 128.304688 300.277344 128.597656 301.683594 129.554688 C 302.371094 122.496094 289.378906 127.582031 287.875 127.359375 C 287.554688 125.566406 282.308594 120.796875 286.671875 120.753906 C 288.578125 120.734375 290.726562 126.09375 291.03125 119.457031 C 290.519531 118.988281 289.992188 118.988281 289.453125 119.457031 C 290.636719 117.449219 296.289062 117.371094 296.464844 118.414062 C 295.75 114.167969 290.652344 113.578125 288.542969 113.4375 C 285.125 113.210938 281.476562 112.039062 278.011719 109.800781 C 272.554688 113.792969 266.886719 110.320312 261.835938 110.242188 C 264.425781 107.738281 267.070312 93.199219 270.910156 103.222656 C 270.332031 94.957031 259.671875 96.339844 256.703125 96.199219 C 255.957031 93.746094 258.367188 94.4375 258.238281 94.582031 C 257.65625 94.652344 257.40625 95.191406 257.492188 96.199219 C 258.519531 96.488281 259.398438 96.003906 260.128906 94.746094 C 261.398438 92.078125 261.726562 94.792969 263.808594 94.445312 C 264.214844 92.867188 262.3125 91.515625 262.46875 89.792969 C 262.832031 85.757812 266.851562 89.613281 267.753906 90.492188 C 269.238281 85.867188 257.8125 82.46875 256.703125 82.59375 C 253.59375 78.601562 250.136719 75.453125 246.515625 73.417969 C 243.953125 71.976562 241.289062 71.109375 238.605469 71.007812 C 234.785156 70.859375 235.554688 66.953125 232.046875 66.789062 C 227.585938 66.585938 223.269531 64.796875 218.828125 63.960938 C 213.082031 62.882812 208.898438 66.140625 203.4375 67.230469 C 192.902344 69.339844 183.613281 68.988281 173.332031 75.445312 C 164.128906 81.226562 154.761719 86.597656 145.804688 93.632812 C 141.777344 96.796875 138.121094 100.828125 134.285156 104.667969 C 129.964844 108.992188 124.992188 110.546875 120.972656 115.945312 C 104.75 137.742188 84.246094 159.625 63.761719 161.144531 C 63.761719 154.429688 73.738281 157.332031 77.175781 154.558594 C 74.546875 154.671875 71.914062 154.890625 69.285156 154.996094 C 64.472656 155.191406 63.761719 156.601562 63.761719 147.539062 C 68.867188 150.28125 74.949219 148.496094 80.132812 147.574219 C 84.269531 146.839844 92.046875 147.953125 95.328125 142.273438 C 91.433594 144.371094 63.761719 149.5625 63.761719 139.636719 " fill-opacity="1" fill-rule="evenodd"/></g><g fill="#405a9d" fill-opacity="1"><g transform="translate(118.191222, 284.907938)"><g><path d="M 5.96875 0 L 5.96875 -3.484375 L 4.25 -0.609375 L 3.65625 -0.609375 L 1.953125 -3.40625 L 1.953125 0 L 0.6875 0 L 0.6875 -5.8125 L 1.796875 -5.8125 L 3.96875 -2.203125 L 6.109375 -5.8125 L 7.21875 -5.8125 L 7.234375 0 Z M 5.96875 0 "/></g></g></g><g fill="#405a9d" fill-opacity="1"><g transform="translate(126.106124, 284.907938)"><g><path d="M 2.390625 -4.53125 C 3.085938 -4.53125 3.617188 -4.363281 3.984375 -4.03125 C 4.359375 -3.707031 4.546875 -3.210938 4.546875 -2.546875 L 4.546875 0 L 3.328125 0 L 3.328125 -0.5625 C 3.085938 -0.144531 2.632812 0.0625 1.96875 0.0625 C 1.625 0.0625 1.328125 0.00390625 1.078125 -0.109375 C 0.828125 -0.222656 0.632812 -0.378906 0.5 -0.578125 C 0.375 -0.785156 0.3125 -1.019531 0.3125 -1.28125 C 0.3125 -1.695312 0.46875 -2.023438 0.78125 -2.265625 C 1.09375 -2.503906 1.570312 -2.625 2.21875 -2.625 L 3.25 -2.625 C 3.25 -2.90625 3.160156 -3.117188 2.984375 -3.265625 C 2.816406 -3.421875 2.5625 -3.5 2.21875 -3.5 C 1.976562 -3.5 1.742188 -3.460938 1.515625 -3.390625 C 1.285156 -3.316406 1.09375 -3.21875 0.9375 -3.09375 L 0.46875 -3.984375 C 0.71875 -4.160156 1.007812 -4.296875 1.34375 -4.390625 C 1.6875 -4.484375 2.035156 -4.53125 2.390625 -4.53125 Z M 2.296875 -0.8125 C 2.515625 -0.8125 2.707031 -0.859375 2.875 -0.953125 C 3.050781 -1.054688 3.175781 -1.207031 3.25 -1.40625 L 3.25 -1.859375 L 2.359375 -1.859375 C 1.828125 -1.859375 1.5625 -1.6875 1.5625 -1.34375 C 1.5625 -1.175781 1.625 -1.046875 1.75 -0.953125 C 1.882812 -0.859375 2.066406 -0.8125 2.296875 -0.8125 Z M 2.296875 -0.8125 "/></g></g></g><g fill="#405a9d" fill-opacity="1"><g transform="translate(131.219727, 284.907938)"><g><path d="M 2.515625 -1.75 L 1.890625 -1.140625 L 1.890625 0 L 0.59375 0 L 0.59375 -6.15625 L 1.890625 -6.15625 L 1.890625 -2.671875 L 3.78125 -4.46875 L 5.328125 -4.46875 L 3.46875 -2.578125 L 5.5 0 L 3.921875 0 Z M 2.515625 -1.75 "/></g></g></g><g fill="#405a9d" fill-opacity="1"><g transform="translate(136.689712, 284.907938)"><g><path d="M 0.59375 -4.46875 L 1.890625 -4.46875 L 1.890625 0 L 0.59375 0 Z M 1.25 -5.09375 C 1.007812 -5.09375 0.8125 -5.160156 0.65625 -5.296875 C 0.507812 -5.429688 0.4375 -5.601562 0.4375 -5.8125 C 0.4375 -6.007812 0.507812 -6.175781 0.65625 -6.3125 C 0.8125 -6.457031 1.007812 -6.53125 1.25 -6.53125 C 1.488281 -6.53125 1.679688 -6.460938 1.828125 -6.328125 C 1.972656 -6.191406 2.046875 -6.023438 2.046875 -5.828125 C 2.046875 -5.617188 1.972656 -5.441406 1.828125 -5.296875 C 1.679688 -5.160156 1.488281 -5.09375 1.25 -5.09375 Z M 1.25 -5.09375 "/></g></g></g><g fill="#405a9d" fill-opacity="1"><g transform="translate(139.184356, 284.907938)"><g><path d="M 3.3125 -4.53125 C 3.863281 -4.53125 4.304688 -4.363281 4.640625 -4.03125 C 4.984375 -3.695312 5.15625 -3.207031 5.15625 -2.5625 L 5.15625 0 L 3.859375 0 L 3.859375 -2.359375 C 3.859375 -2.710938 3.78125 -2.972656 3.625 -3.140625 C 3.476562 -3.316406 3.257812 -3.40625 2.96875 -3.40625 C 2.632812 -3.40625 2.367188 -3.300781 2.171875 -3.09375 C 1.984375 -2.894531 1.890625 -2.597656 1.890625 -2.203125 L 1.890625 0 L 0.59375 0 L 0.59375 -4.46875 L 1.828125 -4.46875 L 1.828125 -3.9375 C 2.003906 -4.125 2.21875 -4.269531 2.46875 -4.375 C 2.726562 -4.476562 3.007812 -4.53125 3.3125 -4.53125 Z M 3.3125 -4.53125 "/></g></g></g><g fill="#405a9d" fill-opacity="1"><g transform="translate(144.911266, 284.907938)"><g><path d="M 5.203125 -4.46875 L 5.203125 -0.75 C 5.203125 0.0703125 4.988281 0.679688 4.5625 1.078125 C 4.132812 1.472656 3.515625 1.671875 2.703125 1.671875 C 2.265625 1.671875 1.851562 1.617188 1.46875 1.515625 C 1.082031 1.410156 0.757812 1.257812 0.5 1.0625 L 1.015625 0.125 C 1.203125 0.28125 1.441406 0.40625 1.734375 0.5 C 2.023438 0.59375 2.3125 0.640625 2.59375 0.640625 C 3.039062 0.640625 3.367188 0.535156 3.578125 0.328125 C 3.796875 0.128906 3.90625 -0.171875 3.90625 -0.578125 L 3.90625 -0.765625 C 3.570312 -0.398438 3.101562 -0.21875 2.5 -0.21875 C 2.09375 -0.21875 1.71875 -0.304688 1.375 -0.484375 C 1.03125 -0.660156 0.757812 -0.910156 0.5625 -1.234375 C 0.363281 -1.566406 0.265625 -1.945312 0.265625 -2.375 C 0.265625 -2.800781 0.363281 -3.175781 0.5625 -3.5 C 0.757812 -3.820312 1.03125 -4.070312 1.375 -4.25 C 1.71875 -4.4375 2.09375 -4.53125 2.5 -4.53125 C 3.144531 -4.53125 3.632812 -4.316406 3.96875 -3.890625 L 3.96875 -4.46875 Z M 2.75 -1.28125 C 3.09375 -1.28125 3.375 -1.378906 3.59375 -1.578125 C 3.8125 -1.785156 3.921875 -2.050781 3.921875 -2.375 C 3.921875 -2.695312 3.8125 -2.957031 3.59375 -3.15625 C 3.375 -3.363281 3.09375 -3.46875 2.75 -3.46875 C 2.40625 -3.46875 2.125 -3.363281 1.90625 -3.15625 C 1.6875 -2.957031 1.578125 -2.695312 1.578125 -2.375 C 1.578125 -2.050781 1.6875 -1.785156 1.90625 -1.578125 C 2.125 -1.378906 2.40625 -1.28125 2.75 -1.28125 Z M 2.75 -1.28125 "/></g></g></g><g fill="#405a9d" fill-opacity="1"><g transform="translate(150.712762, 284.907938)"><g/></g></g><g fill="#405a9d" fill-opacity="1"><g transform="translate(153.058223, 284.907938)"><g><path d="M 9.46875 -5.8125 L 7.5625 0 L 6.125 0 L 4.84375 -3.9375 L 3.53125 0 L 2.09375 0 L 0.1875 -5.8125 L 1.578125 -5.8125 L 2.890625 -1.71875 L 4.25 -5.8125 L 5.5 -5.8125 L 6.828125 -1.6875 L 8.1875 -5.8125 Z M 9.46875 -5.8125 "/></g></g></g><g fill="#405a9d" fill-opacity="1"><g transform="translate(162.697003, 284.907938)"><g><path d="M 2.390625 -4.53125 C 3.085938 -4.53125 3.617188 -4.363281 3.984375 -4.03125 C 4.359375 -3.707031 4.546875 -3.210938 4.546875 -2.546875 L 4.546875 0 L 3.328125 0 L 3.328125 -0.5625 C 3.085938 -0.144531 2.632812 0.0625 1.96875 0.0625 C 1.625 0.0625 1.328125 0.00390625 1.078125 -0.109375 C 0.828125 -0.222656 0.632812 -0.378906 0.5 -0.578125 C 0.375 -0.785156 0.3125 -1.019531 0.3125 -1.28125 C 0.3125 -1.695312 0.46875 -2.023438 0.78125 -2.265625 C 1.09375 -2.503906 1.570312 -2.625 2.21875 -2.625 L 3.25 -2.625 C 3.25 -2.90625 3.160156 -3.117188 2.984375 -3.265625 C 2.816406 -3.421875 2.5625 -3.5 2.21875 -3.5 C 1.976562 -3.5 1.742188 -3.460938 1.515625 -3.390625 C 1.285156 -3.316406 1.09375 -3.21875 0.9375 -3.09375 L 0.46875 -3.984375 C 0.71875 -4.160156 1.007812 -4.296875 1.34375 -4.390625 C 1.6875 -4.484375 2.035156 -4.53125 2.390625 -4.53125 Z M 2.296875 -0.8125 C 2.515625 -0.8125 2.707031 -0.859375 2.875 -0.953125 C 3.050781 -1.054688 3.175781 -1.207031 3.25 -1.40625 L 3.25 -1.859375 L 2.359375 -1.859375 C 1.828125 -1.859375 1.5625 -1.6875 1.5625 -1.34375 C 1.5625 -1.175781 1.625 -1.046875 1.75 -0.953125 C 1.882812 -0.859375 2.066406 -0.8125 2.296875 -0.8125 Z M 2.296875 -0.8125 "/></g></g></g><g fill="#405a9d" fill-opacity="1"><g transform="translate(167.810607, 284.907938)"><g><path d="M 5.03125 -4.46875 L 3.140625 0 L 1.8125 0 L -0.0625 -4.46875 L 1.265625 -4.46875 L 2.5 -1.421875 L 3.78125 -4.46875 Z M 5.03125 -4.46875 "/></g></g></g><g fill="#405a9d" fill-opacity="1"><g transform="translate(172.766741, 284.907938)"><g><path d="M 4.96875 -2.21875 C 4.96875 -2.195312 4.957031 -2.078125 4.9375 -1.859375 L 1.5625 -1.859375 C 1.625 -1.585938 1.769531 -1.367188 2 -1.203125 C 2.226562 -1.046875 2.507812 -0.96875 2.84375 -0.96875 C 3.070312 -0.96875 3.273438 -1 3.453125 -1.0625 C 3.640625 -1.132812 3.8125 -1.25 3.96875 -1.40625 L 4.65625 -0.65625 C 4.238281 -0.175781 3.625 0.0625 2.8125 0.0625 C 2.3125 0.0625 1.863281 -0.03125 1.46875 -0.21875 C 1.082031 -0.414062 0.785156 -0.6875 0.578125 -1.03125 C 0.367188 -1.382812 0.265625 -1.785156 0.265625 -2.234375 C 0.265625 -2.671875 0.367188 -3.0625 0.578125 -3.40625 C 0.785156 -3.757812 1.066406 -4.035156 1.421875 -4.234375 C 1.785156 -4.429688 2.191406 -4.53125 2.640625 -4.53125 C 3.078125 -4.53125 3.472656 -4.4375 3.828125 -4.25 C 4.179688 -4.0625 4.457031 -3.789062 4.65625 -3.4375 C 4.863281 -3.082031 4.96875 -2.675781 4.96875 -2.21875 Z M 2.65625 -3.546875 C 2.363281 -3.546875 2.117188 -3.460938 1.921875 -3.296875 C 1.722656 -3.128906 1.597656 -2.90625 1.546875 -2.625 L 3.75 -2.625 C 3.707031 -2.90625 3.585938 -3.128906 3.390625 -3.296875 C 3.191406 -3.460938 2.945312 -3.546875 2.65625 -3.546875 Z M 2.65625 -3.546875 "/></g></g></g><g fill="#405a9d" fill-opacity="1"><g transform="translate(177.996383, 284.907938)"><g><path d="M 2.09375 0.0625 C 1.726562 0.0625 1.367188 0.0195312 1.015625 -0.0625 C 0.660156 -0.15625 0.378906 -0.273438 0.171875 -0.421875 L 0.59375 -1.34375 C 0.789062 -1.21875 1.03125 -1.113281 1.3125 -1.03125 C 1.601562 -0.945312 1.882812 -0.90625 2.15625 -0.90625 C 2.695312 -0.90625 2.96875 -1.039062 2.96875 -1.3125 C 2.96875 -1.445312 2.890625 -1.539062 2.734375 -1.59375 C 2.585938 -1.644531 2.363281 -1.691406 2.0625 -1.734375 C 1.695312 -1.785156 1.394531 -1.847656 1.15625 -1.921875 C 0.914062 -1.992188 0.707031 -2.117188 0.53125 -2.296875 C 0.363281 -2.484375 0.28125 -2.75 0.28125 -3.09375 C 0.28125 -3.375 0.359375 -3.625 0.515625 -3.84375 C 0.679688 -4.0625 0.921875 -4.226562 1.234375 -4.34375 C 1.546875 -4.46875 1.914062 -4.53125 2.34375 -4.53125 C 2.65625 -4.53125 2.96875 -4.492188 3.28125 -4.421875 C 3.59375 -4.359375 3.851562 -4.265625 4.0625 -4.140625 L 3.625 -3.21875 C 3.226562 -3.4375 2.800781 -3.546875 2.34375 -3.546875 C 2.0625 -3.546875 1.851562 -3.503906 1.71875 -3.421875 C 1.582031 -3.347656 1.515625 -3.253906 1.515625 -3.140625 C 1.515625 -2.992188 1.585938 -2.894531 1.734375 -2.84375 C 1.878906 -2.789062 2.117188 -2.738281 2.453125 -2.6875 C 2.816406 -2.625 3.113281 -2.554688 3.34375 -2.484375 C 3.570312 -2.421875 3.769531 -2.296875 3.9375 -2.109375 C 4.113281 -1.929688 4.203125 -1.679688 4.203125 -1.359375 C 4.203125 -1.078125 4.117188 -0.828125 3.953125 -0.609375 C 3.785156 -0.398438 3.539062 -0.234375 3.21875 -0.109375 C 2.90625 0.00390625 2.53125 0.0625 2.09375 0.0625 Z M 2.09375 0.0625 "/></g></g></g><g fill="#405a9d" fill-opacity="1"><g transform="translate(182.397235, 284.907938)"><g/></g></g><g fill="#405a9d" fill-opacity="1"><g transform="translate(184.742696, 284.907938)"><g><path d="M 0.59375 -4.46875 L 1.890625 -4.46875 L 1.890625 0 L 0.59375 0 Z M 1.25 -5.09375 C 1.007812 -5.09375 0.8125 -5.160156 0.65625 -5.296875 C 0.507812 -5.429688 0.4375 -5.601562 0.4375 -5.8125 C 0.4375 -6.007812 0.507812 -6.175781 0.65625 -6.3125 C 0.8125 -6.457031 1.007812 -6.53125 1.25 -6.53125 C 1.488281 -6.53125 1.679688 -6.460938 1.828125 -6.328125 C 1.972656 -6.191406 2.046875 -6.023438 2.046875 -5.828125 C 2.046875 -5.617188 1.972656 -5.441406 1.828125 -5.296875 C 1.679688 -5.160156 1.488281 -5.09375 1.25 -5.09375 Z M 1.25 -5.09375 "/></g></g></g><g fill="#405a9d" fill-opacity="1"><g transform="translate(187.237341, 284.907938)"><g><path d="M 3.3125 -4.53125 C 3.863281 -4.53125 4.304688 -4.363281 4.640625 -4.03125 C 4.984375 -3.695312 5.15625 -3.207031 5.15625 -2.5625 L 5.15625 0 L 3.859375 0 L 3.859375 -2.359375 C 3.859375 -2.710938 3.78125 -2.972656 3.625 -3.140625 C 3.476562 -3.316406 3.257812 -3.40625 2.96875 -3.40625 C 2.632812 -3.40625 2.367188 -3.300781 2.171875 -3.09375 C 1.984375 -2.894531 1.890625 -2.597656 1.890625 -2.203125 L 1.890625 0 L 0.59375 0 L 0.59375 -4.46875 L 1.828125 -4.46875 L 1.828125 -3.9375 C 2.003906 -4.125 2.21875 -4.269531 2.46875 -4.375 C 2.726562 -4.476562 3.007812 -4.53125 3.3125 -4.53125 Z M 3.3125 -4.53125 "/></g></g></g><g fill="#405a9d" fill-opacity="1"><g transform="translate(192.96425, 284.907938)"><g/></g></g><g fill="#405a9d" fill-opacity="1"><g transform="translate(195.309712, 284.907938)"><g><path d="M 9.46875 -5.8125 L 7.5625 0 L 6.125 0 L 4.84375 -3.9375 L 3.53125 0 L 2.09375 0 L 0.1875 -5.8125 L 1.578125 -5.8125 L 2.890625 -1.71875 L 4.25 -5.8125 L 5.5 -5.8125 L 6.828125 -1.6875 L 8.1875 -5.8125 Z M 9.46875 -5.8125 "/></g></g></g><g fill="#405a9d" fill-opacity="1"><g transform="translate(204.948492, 284.907938)"><g><path d="M 4.96875 -2.21875 C 4.96875 -2.195312 4.957031 -2.078125 4.9375 -1.859375 L 1.5625 -1.859375 C 1.625 -1.585938 1.769531 -1.367188 2 -1.203125 C 2.226562 -1.046875 2.507812 -0.96875 2.84375 -0.96875 C 3.070312 -0.96875 3.273438 -1 3.453125 -1.0625 C 3.640625 -1.132812 3.8125 -1.25 3.96875 -1.40625 L 4.65625 -0.65625 C 4.238281 -0.175781 3.625 0.0625 2.8125 0.0625 C 2.3125 0.0625 1.863281 -0.03125 1.46875 -0.21875 C 1.082031 -0.414062 0.785156 -0.6875 0.578125 -1.03125 C 0.367188 -1.382812 0.265625 -1.785156 0.265625 -2.234375 C 0.265625 -2.671875 0.367188 -3.0625 0.578125 -3.40625 C 0.785156 -3.757812 1.066406 -4.035156 1.421875 -4.234375 C 1.785156 -4.429688 2.191406 -4.53125 2.640625 -4.53125 C 3.078125 -4.53125 3.472656 -4.4375 3.828125 -4.25 C 4.179688 -4.0625 4.457031 -3.789062 4.65625 -3.4375 C 4.863281 -3.082031 4.96875 -2.675781 4.96875 -2.21875 Z M 2.65625 -3.546875 C 2.363281 -3.546875 2.117188 -3.460938 1.921875 -3.296875 C 1.722656 -3.128906 1.597656 -2.90625 1.546875 -2.625 L 3.75 -2.625 C 3.707031 -2.90625 3.585938 -3.128906 3.390625 -3.296875 C 3.191406 -3.460938 2.945312 -3.546875 2.65625 -3.546875 Z M 2.65625 -3.546875 "/></g></g></g><g fill="#405a9d" fill-opacity="1"><g transform="translate(210.178133, 284.907938)"><g><path d="M 3.234375 -4.53125 C 3.648438 -4.53125 4.023438 -4.429688 4.359375 -4.234375 C 4.703125 -4.046875 4.96875 -3.78125 5.15625 -3.4375 C 5.351562 -3.09375 5.453125 -2.691406 5.453125 -2.234375 C 5.453125 -1.773438 5.351562 -1.367188 5.15625 -1.015625 C 4.96875 -0.671875 4.703125 -0.40625 4.359375 -0.21875 C 4.023438 -0.03125 3.648438 0.0625 3.234375 0.0625 C 2.617188 0.0625 2.148438 -0.128906 1.828125 -0.515625 L 1.828125 0 L 0.59375 0 L 0.59375 -6.15625 L 1.890625 -6.15625 L 1.890625 -3.984375 C 2.210938 -4.347656 2.660156 -4.53125 3.234375 -4.53125 Z M 3.015625 -1 C 3.347656 -1 3.617188 -1.109375 3.828125 -1.328125 C 4.046875 -1.554688 4.15625 -1.859375 4.15625 -2.234375 C 4.15625 -2.609375 4.046875 -2.90625 3.828125 -3.125 C 3.617188 -3.351562 3.347656 -3.46875 3.015625 -3.46875 C 2.679688 -3.46875 2.40625 -3.351562 2.1875 -3.125 C 1.976562 -2.90625 1.875 -2.609375 1.875 -2.234375 C 1.875 -1.859375 1.976562 -1.554688 2.1875 -1.328125 C 2.40625 -1.109375 2.679688 -1 3.015625 -1 Z M 3.015625 -1 "/></g></g></g><g fill="#405a9d" fill-opacity="1"><g transform="translate(215.896756, 284.907938)"><g><path d="M 1.09375 -1.546875 C 1.320312 -1.546875 1.507812 -1.472656 1.65625 -1.328125 C 1.8125 -1.179688 1.890625 -0.988281 1.890625 -0.75 C 1.890625 -0.632812 1.875 -0.519531 1.84375 -0.40625 C 1.820312 -0.300781 1.765625 -0.140625 1.671875 0.078125 L 1.1875 1.28125 L 0.375 1.28125 L 0.734375 -0.046875 C 0.597656 -0.0976562 0.488281 -0.1875 0.40625 -0.3125 C 0.332031 -0.4375 0.296875 -0.582031 0.296875 -0.75 C 0.296875 -0.988281 0.367188 -1.179688 0.515625 -1.328125 C 0.671875 -1.472656 0.863281 -1.546875 1.09375 -1.546875 Z M 1.09375 -1.546875 "/></g></g></g><g fill="#405a9d" fill-opacity="1"><g transform="translate(218.068176, 284.907938)"><g/></g></g><g fill="#405a9d" fill-opacity="1"><g transform="translate(220.413637, 284.907938)"><g><path d="M 4.515625 -1.25 L 1.8125 -1.25 L 1.296875 0 L -0.078125 0 L 2.515625 -5.8125 L 3.84375 -5.8125 L 6.4375 0 L 5.03125 0 Z M 4.09375 -2.265625 L 3.171875 -4.484375 L 2.25 -2.265625 Z M 4.09375 -2.265625 "/></g></g></g><g fill="#405a9d" fill-opacity="1"><g transform="translate(226.762138, 284.907938)"><g><path d="M 1.828125 -3.875 C 1.984375 -4.09375 2.191406 -4.253906 2.453125 -4.359375 C 2.722656 -4.472656 3.03125 -4.53125 3.375 -4.53125 L 3.375 -3.328125 C 3.226562 -3.347656 3.128906 -3.359375 3.078125 -3.359375 C 2.703125 -3.359375 2.410156 -3.253906 2.203125 -3.046875 C 1.992188 -2.835938 1.890625 -2.523438 1.890625 -2.109375 L 1.890625 0 L 0.59375 0 L 0.59375 -4.46875 L 1.828125 -4.46875 Z M 1.828125 -3.875 "/></g></g></g><g fill="#405a9d" fill-opacity="1"><g transform="translate(230.334201, 284.907938)"><g><path d="M 3.46875 -0.21875 C 3.34375 -0.125 3.1875 -0.0507812 3 0 C 2.820312 0.0390625 2.628906 0.0625 2.421875 0.0625 C 1.890625 0.0625 1.476562 -0.0703125 1.1875 -0.34375 C 0.894531 -0.613281 0.75 -1.007812 0.75 -1.53125 L 0.75 -3.375 L 0.0625 -3.375 L 0.0625 -4.359375 L 0.75 -4.359375 L 0.75 -5.453125 L 2.046875 -5.453125 L 2.046875 -4.359375 L 3.15625 -4.359375 L 3.15625 -3.375 L 2.046875 -3.375 L 2.046875 -1.546875 C 2.046875 -1.359375 2.09375 -1.210938 2.1875 -1.109375 C 2.289062 -1.015625 2.429688 -0.96875 2.609375 -0.96875 C 2.804688 -0.96875 2.976562 -1.019531 3.125 -1.125 Z M 3.46875 -0.21875 "/></g></g></g><g fill="#405a9d" fill-opacity="1"><g transform="translate(233.939419, 284.907938)"><g><path d="M 1.09375 -1.546875 C 1.320312 -1.546875 1.507812 -1.472656 1.65625 -1.328125 C 1.8125 -1.179688 1.890625 -0.988281 1.890625 -0.75 C 1.890625 -0.632812 1.875 -0.519531 1.84375 -0.40625 C 1.820312 -0.300781 1.765625 -0.140625 1.671875 0.078125 L 1.1875 1.28125 L 0.375 1.28125 L 0.734375 -0.046875 C 0.597656 -0.0976562 0.488281 -0.1875 0.40625 -0.3125 C 0.332031 -0.4375 0.296875 -0.582031 0.296875 -0.75 C 0.296875 -0.988281 0.367188 -1.179688 0.515625 -1.328125 C 0.671875 -1.472656 0.863281 -1.546875 1.09375 -1.546875 Z M 1.09375 -1.546875 "/></g></g></g><g fill="#405a9d" fill-opacity="1"><g transform="translate(236.110838, 284.907938)"><g/></g></g><g fill="#405a9d" fill-opacity="1"><g transform="translate(238.4563, 284.907938)"><g><path d="M 2.390625 -4.53125 C 3.085938 -4.53125 3.617188 -4.363281 3.984375 -4.03125 C 4.359375 -3.707031 4.546875 -3.210938 4.546875 -2.546875 L 4.546875 0 L 3.328125 0 L 3.328125 -0.5625 C 3.085938 -0.144531 2.632812 0.0625 1.96875 0.0625 C 1.625 0.0625 1.328125 0.00390625 1.078125 -0.109375 C 0.828125 -0.222656 0.632812 -0.378906 0.5 -0.578125 C 0.375 -0.785156 0.3125 -1.019531 0.3125 -1.28125 C 0.3125 -1.695312 0.46875 -2.023438 0.78125 -2.265625 C 1.09375 -2.503906 1.570312 -2.625 2.21875 -2.625 L 3.25 -2.625 C 3.25 -2.90625 3.160156 -3.117188 2.984375 -3.265625 C 2.816406 -3.421875 2.5625 -3.5 2.21875 -3.5 C 1.976562 -3.5 1.742188 -3.460938 1.515625 -3.390625 C 1.285156 -3.316406 1.09375 -3.21875 0.9375 -3.09375 L 0.46875 -3.984375 C 0.71875 -4.160156 1.007812 -4.296875 1.34375 -4.390625 C 1.6875 -4.484375 2.035156 -4.53125 2.390625 -4.53125 Z M 2.296875 -0.8125 C 2.515625 -0.8125 2.707031 -0.859375 2.875 -0.953125 C 3.050781 -1.054688 3.175781 -1.207031 3.25 -1.40625 L 3.25 -1.859375 L 2.359375 -1.859375 C 1.828125 -1.859375 1.5625 -1.6875 1.5625 -1.34375 C 1.5625 -1.175781 1.625 -1.046875 1.75 -0.953125 C 1.882812 -0.859375 2.066406 -0.8125 2.296875 -0.8125 Z M 2.296875 -0.8125 "/></g></g></g><g fill="#405a9d" fill-opacity="1"><g transform="translate(243.569904, 284.907938)"><g><path d="M 3.3125 -4.53125 C 3.863281 -4.53125 4.304688 -4.363281 4.640625 -4.03125 C 4.984375 -3.695312 5.15625 -3.207031 5.15625 -2.5625 L 5.15625 0 L 3.859375 0 L 3.859375 -2.359375 C 3.859375 -2.710938 3.78125 -2.972656 3.625 -3.140625 C 3.476562 -3.316406 3.257812 -3.40625 2.96875 -3.40625 C 2.632812 -3.40625 2.367188 -3.300781 2.171875 -3.09375 C 1.984375 -2.894531 1.890625 -2.597656 1.890625 -2.203125 L 1.890625 0 L 0.59375 0 L 0.59375 -4.46875 L 1.828125 -4.46875 L 1.828125 -3.9375 C 2.003906 -4.125 2.21875 -4.269531 2.46875 -4.375 C 2.726562 -4.476562 3.007812 -4.53125 3.3125 -4.53125 Z M 3.3125 -4.53125 "/></g></g></g><g fill="#405a9d" fill-opacity="1"><g transform="translate(249.296813, 284.907938)"><g><path d="M 5.140625 -6.15625 L 5.140625 0 L 3.90625 0 L 3.90625 -0.515625 C 3.582031 -0.128906 3.117188 0.0625 2.515625 0.0625 C 2.097656 0.0625 1.71875 -0.03125 1.375 -0.21875 C 1.03125 -0.40625 0.757812 -0.671875 0.5625 -1.015625 C 0.375 -1.367188 0.28125 -1.773438 0.28125 -2.234375 C 0.28125 -2.691406 0.375 -3.09375 0.5625 -3.4375 C 0.757812 -3.789062 1.03125 -4.0625 1.375 -4.25 C 1.71875 -4.4375 2.097656 -4.53125 2.515625 -4.53125 C 3.085938 -4.53125 3.53125 -4.347656 3.84375 -3.984375 L 3.84375 -6.15625 Z M 2.734375 -1 C 3.066406 -1 3.335938 -1.109375 3.546875 -1.328125 C 3.765625 -1.554688 3.875 -1.859375 3.875 -2.234375 C 3.875 -2.609375 3.765625 -2.90625 3.546875 -3.125 C 3.335938 -3.351562 3.066406 -3.46875 2.734375 -3.46875 C 2.398438 -3.46875 2.125 -3.351562 1.90625 -3.125 C 1.695312 -2.90625 1.59375 -2.609375 1.59375 -2.234375 C 1.59375 -1.859375 1.695312 -1.554688 1.90625 -1.328125 C 2.125 -1.109375 2.398438 -1 2.734375 -1 Z M 2.734375 -1 "/></g></g></g><g fill="#405a9d" fill-opacity="1"><g transform="translate(255.032009, 284.907938)"><g/></g></g><g fill="#405a9d" fill-opacity="1"><g transform="translate(257.37747, 284.907938)"><g><path d="M 6.265625 -5.8125 L 3.765625 0 L 2.4375 0 L -0.078125 -5.8125 L 1.375 -5.8125 L 3.140625 -1.65625 L 4.9375 -5.8125 Z M 6.265625 -5.8125 "/></g></g></g><g fill="#405a9d" fill-opacity="1"><g transform="translate(263.560215, 284.907938)"><g><path d="M 0.59375 -4.46875 L 1.890625 -4.46875 L 1.890625 0 L 0.59375 0 Z M 1.25 -5.09375 C 1.007812 -5.09375 0.8125 -5.160156 0.65625 -5.296875 C 0.507812 -5.429688 0.4375 -5.601562 0.4375 -5.8125 C 0.4375 -6.007812 0.507812 -6.175781 0.65625 -6.3125 C 0.8125 -6.457031 1.007812 -6.53125 1.25 -6.53125 C 1.488281 -6.53125 1.679688 -6.460938 1.828125 -6.328125 C 1.972656 -6.191406 2.046875 -6.023438 2.046875 -5.828125 C 2.046875 -5.617188 1.972656 -5.441406 1.828125 -5.296875 C 1.679688 -5.160156 1.488281 -5.09375 1.25 -5.09375 Z M 1.25 -5.09375 "/></g></g></g><g fill="#405a9d" fill-opacity="1"><g transform="translate(266.05486, 284.907938)"><g><path d="M 5.140625 -6.15625 L 5.140625 0 L 3.90625 0 L 3.90625 -0.515625 C 3.582031 -0.128906 3.117188 0.0625 2.515625 0.0625 C 2.097656 0.0625 1.71875 -0.03125 1.375 -0.21875 C 1.03125 -0.40625 0.757812 -0.671875 0.5625 -1.015625 C 0.375 -1.367188 0.28125 -1.773438 0.28125 -2.234375 C 0.28125 -2.691406 0.375 -3.09375 0.5625 -3.4375 C 0.757812 -3.789062 1.03125 -4.0625 1.375 -4.25 C 1.71875 -4.4375 2.097656 -4.53125 2.515625 -4.53125 C 3.085938 -4.53125 3.53125 -4.347656 3.84375 -3.984375 L 3.84375 -6.15625 Z M 2.734375 -1 C 3.066406 -1 3.335938 -1.109375 3.546875 -1.328125 C 3.765625 -1.554688 3.875 -1.859375 3.875 -2.234375 C 3.875 -2.609375 3.765625 -2.90625 3.546875 -3.125 C 3.335938 -3.351562 3.066406 -3.46875 2.734375 -3.46875 C 2.398438 -3.46875 2.125 -3.351562 1.90625 -3.125 C 1.695312 -2.90625 1.59375 -2.609375 1.59375 -2.234375 C 1.59375 -1.859375 1.695312 -1.554688 1.90625 -1.328125 C 2.125 -1.109375 2.398438 -1 2.734375 -1 Z M 2.734375 -1 "/></g></g></g><g fill="#405a9d" fill-opacity="1"><g transform="translate(271.790056, 284.907938)"><g><path d="M 4.96875 -2.21875 C 4.96875 -2.195312 4.957031 -2.078125 4.9375 -1.859375 L 1.5625 -1.859375 C 1.625 -1.585938 1.769531 -1.367188 2 -1.203125 C 2.226562 -1.046875 2.507812 -0.96875 2.84375 -0.96875 C 3.070312 -0.96875 3.273438 -1 3.453125 -1.0625 C 3.640625 -1.132812 3.8125 -1.25 3.96875 -1.40625 L 4.65625 -0.65625 C 4.238281 -0.175781 3.625 0.0625 2.8125 0.0625 C 2.3125 0.0625 1.863281 -0.03125 1.46875 -0.21875 C 1.082031 -0.414062 0.785156 -0.6875 0.578125 -1.03125 C 0.367188 -1.382812 0.265625 -1.785156 0.265625 -2.234375 C 0.265625 -2.671875 0.367188 -3.0625 0.578125 -3.40625 C 0.785156 -3.757812 1.066406 -4.035156 1.421875 -4.234375 C 1.785156 -4.429688 2.191406 -4.53125 2.640625 -4.53125 C 3.078125 -4.53125 3.472656 -4.4375 3.828125 -4.25 C 4.179688 -4.0625 4.457031 -3.789062 4.65625 -3.4375 C 4.863281 -3.082031 4.96875 -2.675781 4.96875 -2.21875 Z M 2.65625 -3.546875 C 2.363281 -3.546875 2.117188 -3.460938 1.921875 -3.296875 C 1.722656 -3.128906 1.597656 -2.90625 1.546875 -2.625 L 3.75 -2.625 C 3.707031 -2.90625 3.585938 -3.128906 3.390625 -3.296875 C 3.191406 -3.460938 2.945312 -3.546875 2.65625 -3.546875 Z M 2.65625 -3.546875 "/></g></g></g><g fill="#405a9d" fill-opacity="1"><g transform="translate(277.019697, 284.907938)"><g><path d="M 2.71875 0.0625 C 2.25 0.0625 1.828125 -0.03125 1.453125 -0.21875 C 1.078125 -0.414062 0.785156 -0.6875 0.578125 -1.03125 C 0.367188 -1.382812 0.265625 -1.785156 0.265625 -2.234375 C 0.265625 -2.671875 0.367188 -3.0625 0.578125 -3.40625 C 0.785156 -3.757812 1.078125 -4.035156 1.453125 -4.234375 C 1.828125 -4.429688 2.25 -4.53125 2.71875 -4.53125 C 3.1875 -4.53125 3.601562 -4.429688 3.96875 -4.234375 C 4.34375 -4.035156 4.632812 -3.757812 4.84375 -3.40625 C 5.0625 -3.0625 5.171875 -2.671875 5.171875 -2.234375 C 5.171875 -1.785156 5.0625 -1.382812 4.84375 -1.03125 C 4.632812 -0.6875 4.34375 -0.414062 3.96875 -0.21875 C 3.601562 -0.03125 3.1875 0.0625 2.71875 0.0625 Z M 2.71875 -1 C 3.050781 -1 3.320312 -1.109375 3.53125 -1.328125 C 3.75 -1.554688 3.859375 -1.859375 3.859375 -2.234375 C 3.859375 -2.609375 3.75 -2.90625 3.53125 -3.125 C 3.320312 -3.351562 3.050781 -3.46875 2.71875 -3.46875 C 2.382812 -3.46875 2.109375 -3.351562 1.890625 -3.125 C 1.679688 -2.90625 1.578125 -2.609375 1.578125 -2.234375 C 1.578125 -1.859375 1.679688 -1.554688 1.890625 -1.328125 C 2.109375 -1.109375 2.382812 -1 2.71875 -1 Z M 2.71875 -1 "/></g></g></g></svg>